<?xml version="1.0" encoding="UTF-8" standalone="no"?>
<!-- Created with Inkscape (http://www.inkscape.org/) -->

<svg
   width="512"
   height="512"
   viewBox="0 0 135.46666 135.46667"
   version="1.1"
   id="svg5"
   inkscape:version="1.2.2 (b0a8486541, 2022-12-01)"
   sodipodi:docname="logo1.svg"
   xmlns:inkscape="http://www.inkscape.org/namespaces/inkscape"
   xmlns:sodipodi="http://sodipodi.sourceforge.net/DTD/sodipodi-0.dtd"
   xmlns="http://www.w3.org/2000/svg"
   xmlns:svg="http://www.w3.org/2000/svg">
  <sodipodi:namedview
     id="namedview7"
     pagecolor="#505050"
     bordercolor="#ffffff"
     borderopacity="1"
     inkscape:showpageshadow="0"
     inkscape:pageopacity="0"
     inkscape:pagecheckerboard="1"
     inkscape:deskcolor="#505050"
     inkscape:document-units="px"
     showgrid="false"
     inkscape:zoom="1.1959364"
     inkscape:cx="322.34156"
     inkscape:cy="264.64618"
     inkscape:window-width="1920"
     inkscape:window-height="1003"
     inkscape:window-x="0"
     inkscape:window-y="0"
     inkscape:window-maximized="1"
     inkscape:current-layer="g31" />
  <defs
     id="defs2" />
  <g
     inkscape:label="Layer 1"
     inkscape:groupmode="layer"
     id="layer1">
    <g
       stroke="#000000"
       fill="#000000"
       stroke-width="0"
       transform="matrix(0.06447818,0,0,-0.06447836,-3.0636773,83.852888)"
       id="g31">
      <rect
         style="fill:#ffffff;fill-opacity:1;stroke:none;stroke-width:34.3734"
         id="rect12080"
         width="2100.9692"
         height="2100.9631"
         x="47.514946"
         y="-1300.4811"
         transform="scale(1,-1)" />
      <g
         data-mml-node="math"
         id="g29">
        <g
           data-mml-node="mo"
           id="g11"
           style="fill:#5cf64a;fill-opacity:1">
          <path
             id="use9"
             d="M 118,-250 V 750 h 137 v -40 h -97 v -920 h 97 v -40 z"
             style="fill:#5cf64a;fill-opacity:1" />
        </g>
        <g
           data-mml-node="mi"
           transform="translate(278)"
           id="g15"
           style="fill:#d1109c;fill-opacity:1">
          <path
             id="use13"
             d="m 347,338 q -10,0 -53,11 -43,11 -63,11 -20,0 -34,-4 -14,-4 -23,-10 -9,-6 -12,-11 -3,-5 -7,-11 l -2,-4 q -3,-3 -15,-3 -21,0 -21,8 0,5 3,14 13,39 43,67 30,28 66,34 12,2 17,2 25,0 45,-17 20,-17 38,-33 18,-16 38,-17 22,0 44,33 22,33 23,33 1,1 15,1 h 13 q 6,-6 6,-8 0,-4 -5,-14 -5,-10 -14,-21 -9,-11 -17,-22 -8,-11 -14,-19 l -7,-9 Q 368,298 275,214 182,130 160,106 l -12,-12 15,-1 q 22,0 64,-11 42,-11 63,-11 38,0 70,19 32,19 42,50 4,9 7,11 3,2 15,2 19,0 19,-10 0,-5 -1,-9 Q 425,72 376,31 327,-10 278,-11 252,-11 232,6 212,23 193,40 174,57 155,57 111,57 76,-3 70,-11 59,-11 H 54 41 q -6,6 -6,9 0,15 58,86 39,45 132,130 93,85 115,108 12,16 7,16 z"
             style="fill:#d1109c;fill-opacity:1" />
        </g>
        <g
           data-mml-node="mi"
           transform="translate(743)"
           id="g19"
           style="fill:#b20d30;fill-opacity:1">
          <path
             id="use17"
             d="m 21,287 q 1,6 3,16 2,10 12,38 10,28 20,47 10,19 32,37 22,18 44,17 22,-1 43,-7 21,-6 30,-18 9,-12 16,-22 7,-10 8,-19 l 2,-7 q 0,-2 1,-2 l 11,11 q 60,64 141,64 17,0 31,-2 14,-2 26,-7 12,-5 19,-10 7,-5 15,-12 8,-7 10,-13 2,-6 8,-13 6,-7 4,-12 -2,-5 3,-9 5,-4 2,-7 l 8,10 q 63,75 149,75 54,0 87,-27 33,-27 34,-79 0,-51 -38,-158 -38,-107 -38,-128 1,-14 5,-19 4,-5 15,-5 28,0 52,30 24,30 39,82 3,11 6,13 3,2 16,2 20,0 20,-8 0,-1 -4,-15 -8,-29 -22,-57 -14,-28 -46,-56 -32,-28 -69,-27 -47,0 -68,27 -21,27 -21,56 0,19 36,120 36,101 37,152 0,59 -44,59 h -5 Q 565,404 506,303 L 499,291 466,157 Q 433,26 428,16 q -13,-27 -43,-27 -13,0 -21,7 -8,7 -11,12 -3,5 -3,10 0,11 34,143 l 36,146 q 3,15 3,38 0,59 -44,59 h -5 Q 288,404 229,303 L 222,291 189,157 Q 156,26 151,16 138,-11 108,-11 95,-11 87,-5 79,1 76,7 q -3,6 -2,10 0,13 38,164 39,154 39,161 3,15 3,27 0,36 -25,36 -22,0 -37,-28 Q 77,349 69,316 61,283 57,280 55,278 41,278 H 27 q -6,6 -6,9 z"
             style="fill:#b20d30;fill-opacity:1" />
        </g>
        <g
           data-mml-node="mi"
           transform="translate(1621)"
           id="g23"
           style="fill:#e8aa14;fill-opacity:1">
          <path
             id="use21"
             d="m 117,59 q 0,-33 25,-33 37,0 63,105 6,20 10,21 2,1 10,1 h 4 q 9,0 12,0 3,0 5,-2 2,-2 2,-7 -1,-6 -3,-16 Q 243,118 234,90 225,62 214,43 203,24 183,6 163,-12 137,-11 101,-11 70,11 39,33 38,85 q 0,12 1,17 l 65,258 q 63,255 63,263 0,3 -1,5 -1,2 -4,4 -3,2 -5,2 -2,0 -8,1 -6,1 -8,1 -2,0 -9,1 -7,1 -10,0 -10,0 -13,0 -3,0 -8,1 -5,1 -6,3 -1,2 -1,6 0,2 2,14 5,19 11,21 6,2 72,6 15,1 34,2 19,1 30,3 11,2 11,1 12,0 12,-8 0,-11 -73,-300 -73,-289 -75,-303 0,-2 0,-8 0,-6 -1,-10 z"
             style="fill:#e8aa14;fill-opacity:1" />
        </g>
        <g
           data-mml-node="mo"
           transform="translate(1919)"
           id="g27"
           style="fill:#3f88c5;fill-opacity:1;stroke:none;stroke-opacity:1">
          <path
             id="use25"
             d="m 22,710 v 40 H 159 V -250 H 22 v 40 h 97 v 920 z"
             style="fill:#3f88c5;fill-opacity:1;stroke:none;stroke-opacity:1" />
        </g>
      </g>
    </g>
  </g>
</svg>
